<svg width="896" height="896" viewBox="0 0 896 896" xmlns="http://www.w3.org/2000/svg"><title>icon!</title><g fill="none" fill-rule="evenodd"><path d="M448 896c247.424 0 448-200.576 448-448S695.424 0 448 0 0 200.576 0 448s200.576 448 448 448zm0-144c167.895 0 304-136.105 304-304S615.895 144 448 144 144 280.105 144 448s136.105 304 304 304z" fill="#626262"/><path fill="#626262" d="M448 144l263.272 152v304L448 752 184.728 600V296z"/><path fill="#CECECE" d="M448 196.696l217.636 125.652v251.304L448 699.304 230.364 573.652V322.348z"/><path fill="#FFF" d="M448 250.18l171.318 98.91v197.82L448 645.82l-171.318-98.91V349.09z"/></g></svg>